<svg viewBox="0 0 1024 1024" version="1.1" xmlns="http://www.w3.org/2000/svg" width="32" height="32">
  <path d="M981.333333 490.666667C981.333333 243.242667 780.757333 42.666667 533.333333 42.666667S85.333333 243.242667 85.333333 490.666667c0 81.834667 21.930667 158.549333 60.245334 224.554666L89.045333 884.906667a42.666667 42.666667 0 0 0 51.456 54.741333l188.330667-50.218667A446.122667 446.122667 0 0 0 533.333333 938.666667C780.757333 938.666667 981.333333 738.090667 981.333333 490.666667zM320 554.666667a64 64 0 1 1 0-128 64 64 0 0 1 0 128z m277.333333-64a64 64 0 1 1-128 0 64 64 0 0 1 128 0z m149.333334 64a64 64 0 1 1 0-128 64 64 0 0 1 0 128z"></path>
</svg>