<svg viewBox="0 0 1024 1024" version="1.1" xmlns="http://www.w3.org/2000/svg" width="64" height="64">
  <path d="M401.30892 960.182765c-226.542584 0-336.631614-52.980346-336.631614-162.209306 0-76.718293 114.389384-127.118428 229.982866-144.663867l0-6.536536c-86.351083-66.053418-97.876029-184.055098-97.876029-281.071057 0-132.106837 77.750378-211.061314 208.137074-211.061314l6.880564 0c130.386696 0 208.137074 78.954477 208.137074 211.061314 0 97.015958-11.524945 214.845624-97.876029 281.071057l0 6.536536c115.593482 17.545439 229.982866 67.77356 229.982866 144.663867C752.045691 872.11154 691.152696 960.182765 401.30892 960.182765zM404.921216 218.801949c-95.639845 0-144.147825 49.540064-144.147825 147.072065 0 91.339493 9.804804 190.763649 83.082815 237.379473 9.288762 5.84848 14.793214 15.997312 14.793214 27.006215l0 51.260205c0 16.341341-12.385016 30.102469-28.554342 31.82261-121.097934 12.729044-201.428523 59.344868-201.428523 84.630942 0 65.193348 91.683521 98.220057 272.642365 98.220057 182.162943 0 286.747522-35.778935 286.747522-98.220057 0-25.286074-80.33059-71.901898-201.428523-84.630942-16.341341-1.720141-28.554342-15.48127-28.554342-31.82261l0-51.260205c0-11.008903 5.676466-21.157736 14.793214-27.006215 73.105997-46.615824 83.082815-146.211994 83.082815-237.379473 0-97.532001-48.507979-147.072065-144.147825-147.072065L404.921216 218.801949 404.921216 218.801949z"></path>
  <path d="M899.117756 763.742651c-17.717453 0-31.994625-14.277171-31.994625-31.994625 0-24.426004-91.167479-83.942886-196.956157-95.123803-16.341341-1.720141-28.726356-15.48127-28.726356-31.82261L641.440618 538.404166c0-11.008903 5.676466-21.157736 14.793214-27.006215 82.738787-52.636318 91.683521-169.777927 91.683521-217.769864 0-110.433059-74.654124-133.654964-137.26726-133.654964-17.717453 0-31.994625-14.277171-31.994625-31.994625s14.277171-31.994625 31.994625-31.994625c124.194188 0 201.256509 75.686209 201.256509 197.644213 0 55.732572-10.664875 188.699479-106.476734 261.289434l0 22.18982c102.176382 18.577524 225.682513 79.986561 225.682513 154.640685C931.284394 749.46548 916.835209 763.742651 899.117756 763.742651z"></path>
</svg>