<svg viewBox="0 0 1252 1024" version="1.1" xmlns="http://www.w3.org/2000/svg" width="30" height="30">
  <path d="M789.325694 62.559305h0.28436-0.28436M773.970228 0c-28.436048 0-56.872096 22.748838-56.872096 69.952678V250.237222l-32.132734 1.706162a682.46515 682.46515 0 0 0-398.104671 142.18024C142.689964 511.848862 27.239609 708.626314 0.509724 961.991501A54.881572 54.881572 0 0 0 46.860483 1023.697725a22.748838 22.748838 0 0 0 7.393372 0 48.056921 48.056921 0 0 0 43.507153-25.308083C236.244562 799.337307 532.26382 767.773294 677.572025 767.773294h39.810467v193.080765A59.715701 59.715701 0 0 0 776.529472 1023.697725a65.11855 65.11855 0 0 0 46.350758-20.758315l389.858217-412.038334c50.047444-52.037968 52.606689-106.066459 2.559244-158.104427L815.202497 17.91471A56.872096 56.872096 0 0 0 773.970228 0z"></path>
</svg>