<svg viewBox="0 0 1024 1024" version="1.1" xmlns="http://www.w3.org/2000/svg" width="32" height="32">
  <path d="M42.666667 896h170.666666V384H42.666667v512z m938.666666-469.333333c0-47.146667-38.186667-85.333333-85.333333-85.333334H626.56l40.746667-194.986666c0.853333-4.266667 1.493333-8.746667 1.493333-13.44 0-17.706667-7.253333-33.706667-18.773333-45.226667L604.586667 42.666667 323.626667 323.626667C308.266667 339.2 298.666667 360.533333 298.666667 384v426.666667c0 47.146667 38.186667 85.333333 85.333333 85.333333h384c35.413333 0 65.706667-21.546667 78.506667-52.053333l128.64-300.8A85.333333 85.333333 0 0 0 981.333333 512v-81.706667l-0.426666-0.426666L981.333333 426.666667z"></path>
</svg>