<svg viewBox="0 0 1024 1024" version="1.1" xmlns="http://www.w3.org/2000/svg" width="128" height="128">
  <path d="M968.672 239.744c-15.84-9.408-35.84-8.768-54.88 1.664l-106.944 58.592V190.848A62.912 62.912 0 0 0 744 128H126.848A62.912 62.912 0 0 0 64 190.848v205.312a32 32 0 0 0 64 0L126.848 192l616-1.152 1.152 554.304h-108.8a32 32 0 1 0 0 64h108.8a62.944 62.944 0 0 0 62.848-62.88v-140l106.912 58.592c10.08 5.536 20.448 8.288 30.272 8.288 8.768 0 17.152-2.176 24.64-6.592 14.816-8.8 23.328-24.704 23.328-43.712V283.424c0-18.976-8.512-34.88-23.328-43.68zM928 599.68l-121.152-66.368v-160.32L928 306.624v293.056z"></path>
  <path d="M288 416c-158.784 0-288 129.184-288 288s129.216 288 288 288 288-129.184 288-288-129.216-288-288-288z m0 512c-123.52 0-224-100.512-224-224s100.48-224 224-224 224 100.512 224 224-100.48 224-224 224z"></path>
  <path d="M288 544a32 32 0 0 0-32 32v151.104a32 32 0 0 0 64 0V576a32 32 0 0 0-32-32z"></path>
  <path d="M288 832m-32 0a32 32 0 1 0 64 0 32 32 0 1 0-64 0Z"></path>
</svg>