<svg viewBox="0 0 1024 1024" version="1.1" xmlns="http://www.w3.org/2000/svg" width="128" height="128">
  <path d="M692 940c5.523 0 10 4.477 10 10s-4.477 10-10 10H232c-5.523 0-10-4.477-10-10s4.477-10 10-10h460z m100 0c5.523 0 10 4.477 10 10s-4.477 10-10 10h-60c-5.523 0-10-4.477-10-10s4.477-10 10-10h60zM398.62 66.505l0.222 0.202L527.9 187.796l95.417-81.404c4.202-3.584 10.514-3.084 14.098 1.118 3.52 4.125 3.101 10.284-0.892 13.9l-0.225 0.198L544.409 200H880c44.183 0 80 35.817 80 80v504c0 44.183-35.817 80-80 80H144c-44.183 0-80-35.817-80-80V280c0-44.183 35.817-80 80-80h367.677L385.157 81.293c-3.954-3.71-4.22-9.878-0.652-13.913l0.202-0.222c3.71-3.955 9.878-4.22 13.913-0.653zM880 240H144c-22.091 0-40 17.909-40 40v504c0 22.091 17.909 40 40 40h736c22.091 0 40-17.909 40-40V280c0-22.091-17.909-40-40-40z m-485.643 92.643a20 20 0 0 1 10 2.68L680.36 494.68c9.566 5.523 12.843 17.754 7.32 27.32a20 20 0 0 1-7.32 7.32L404.358 688.68c-9.566 5.523-21.798 2.246-27.321-7.32a20 20 0 0 1-2.68-10V352.643c0-11.046 8.955-20 20-20zM160.5 593.21c5.43 0 9.848 4.327 9.996 9.72l0.004 0.28v51.742c0 5.523-4.477 10-10 10-5.43 0-9.848-4.327-9.996-9.72l-0.004-0.28v-51.742c0-5.523 4.477-10 10-10z m253.857-205.926v249.432L630.36 512 414.357 387.285zM160.5 360c5.43 0 9.848 4.327 9.996 9.72l0.004 0.28v192.258c0 5.523-4.477 10-10 10-5.43 0-9.848-4.327-9.996-9.72l-0.004-0.28V370c0-5.523 4.477-10 10-10z" fill="rgba(255, 255, 255, 0.15)"></path>
</svg>